<?xml version="1.0" encoding="iso-8859-1"?>
<!-- Uploaded to: SVG Repo, www.svgrepo.com, Generator: SVG Repo Mixer Tools -->
<svg version="1.1" id="Layer_1" xmlns="http://www.w3.org/2000/svg" xmlns:xlink="http://www.w3.org/1999/xlink" 
	 viewBox="0 0 512 512" xml:space="preserve">
<polygon style="fill:#FFE08F;" points="471.149,8.17 438.468,223.319 471.149,438.468 503.83,438.468 503.83,8.17 "/>
<rect x="73.532" y="8.17" style="fill:#FFF3D4;" width="397.617" height="430.298"/>
<rect x="73.532" y="40.851" style="fill:#D5AEA4;" width="397.617" height="364.936"/>
<g>
	<path style="fill:#C08577;" d="M427.574,84.426v98.043h-36.178c0,9.02-7.31,16.34-16.34,16.34h-45.524v-27.234h-32.681h-76.255
		v-32.681h32.681c0-9.02,7.321-16.34,16.34-16.34h10.894V84.426H427.574z"/>
	<polygon style="fill:#C08577;" points="394.894,280.511 384,313.191 438.468,313.191 438.468,280.511 	"/>
</g>
<path style="fill:#F5AC51;" d="M84.426,73.532l21.787,421.532c19.531-11.302,32.681-32.407,32.681-56.596
	c0-36.098,0-364.936,0-364.936H84.426z"/>
<path style="fill:#FFD159;" d="M8.17,73.532c0,0,0,328.838,0,364.936s29.264,65.362,65.362,65.362
	c11.909,0,23.065-3.201,32.681-8.766V73.532H8.17z"/>
<circle style="fill:#FFE08F;" cx="73.532" cy="73.532" r="65.362"/>
<circle style="fill:#F5AC51;" cx="73.532" cy="73.532" r="32.681"/>
<path style="fill:#FFFFFF;" d="M242.383,356.766h-70.809v16.34h87.149C258.723,364.082,251.407,356.766,242.383,356.766z"/>
<path style="fill:#C08577;" d="M280.511,204.255v103.489h-38.128c-11.983,0-21.787-9.804-21.787-21.787V247.83h-10.894
	c-12.037,0-21.787-9.75-21.787-21.787c0-12.037,9.75-21.787,21.787-21.787H280.511z"/>
<circle cx="89.872" cy="397.617" r="8.17"/>
<circle cx="57.191" cy="430.298" r="8.17"/>
<path d="M73.532,114.383c22.526,0,40.851-18.325,40.851-40.851S96.058,32.681,73.532,32.681S32.681,51.006,32.681,73.532
	S51.006,114.383,73.532,114.383z M73.532,49.021c13.516,0,24.511,10.996,24.511,24.511S87.048,98.043,73.532,98.043
	S49.021,87.047,49.021,73.532S60.016,49.021,73.532,49.021z"/>
<path d="M503.83,0H73.532C32.986,0,0,32.986,0,73.532v364.936C0,479.014,32.986,512,73.532,512
	c37.783,0,68.988-28.648,73.067-65.362H503.83c4.513,0,8.17-3.657,8.17-8.17V8.17C512,3.657,508.343,0,503.83,0z M73.532,16.34
	c31.536,0,57.191,25.657,57.191,57.191s-25.656,57.191-57.191,57.191S16.34,105.067,16.34,73.532S41.996,16.34,73.532,16.34z
	 M73.532,495.66c-31.536,0-57.191-25.657-57.191-57.191v-318.79c13.491,16.688,34.111,27.385,57.191,27.385
	s43.701-10.698,57.191-27.385v318.79C130.723,470.003,105.068,495.66,73.532,495.66z M495.66,430.298H147.064V73.532
	c0-23.08-10.698-43.701-27.385-57.191H495.66V430.298z"/>
<path d="M438.468,332.255c4.513,0,8.17-3.657,8.17-8.17v-43.574c0-4.513-3.657-8.17-8.17-8.17h-43.574
	c-3.518,0-6.64,2.25-7.751,5.586l-10.894,32.681c-0.831,2.491-0.413,5.231,1.123,7.362c1.535,2.13,4.001,3.392,6.628,3.392h46.298
	v2.723C430.298,328.598,433.955,332.255,438.468,332.255z M395.335,305.021l5.447-16.34h29.516v16.34H395.335z"/>
<path d="M413.957,247.83v-10.894c0-4.513-3.657-8.17-8.17-8.17c-4.513,0-8.17,3.657-8.17,8.17v10.894c0,4.513,3.657,8.17,8.17,8.17
	C410.3,256,413.957,252.343,413.957,247.83z"/>
<path d="M163.404,356.766c0,4.513,3.658,8.17,8.17,8.17h70.809c4.506,0,8.17,3.665,8.17,8.17c0,4.513,3.658,8.17,8.17,8.17
	c4.513,0,8.17-3.657,8.17-8.17c0-13.515-10.995-24.511-24.511-24.511h-70.809C167.062,348.596,163.404,352.253,163.404,356.766z"/>
<path d="M165.988,49.021h296.99v348.596H171.574c-4.512,0-8.17,3.657-8.17,8.17c0,4.513,3.658,8.17,8.17,8.17h299.574
	c4.513,0,8.17-3.657,8.17-8.17V40.851c0-4.513-3.657-8.17-8.17-8.17H165.988c-4.512,0-8.17,3.657-8.17,8.17
	S161.475,49.021,165.988,49.021z"/>
<path d="M209.702,196.085c-16.519,0-29.957,13.439-29.957,29.957S193.183,256,209.702,256h2.723v29.957
	c0,16.518,13.438,29.957,29.957,29.957h38.128c4.513,0,8.17-3.657,8.17-8.17V272.34c0-4.513-3.657-8.17-8.17-8.17
	c-4.513,0-8.17,3.657-8.17,8.17v27.234h-29.957c-7.509,0-13.617-6.108-13.617-13.617V247.83c0-4.513-3.658-8.17-8.17-8.17h-10.894
	c-7.509,0-13.617-6.108-13.617-13.617c0-7.509,6.108-13.617,13.617-13.617h62.638v27.234c0,4.513,3.657,8.17,8.17,8.17
	c4.513,0,8.17-3.657,8.17-8.17v-27.234h8.17c4.513,0,8.17-3.657,8.17-8.17v-24.511h16.34v46.298c0,4.513,3.657,8.17,8.17,8.17
	c4.513,0,8.17-3.657,8.17-8.17v-19.064h37.36c10.652,0,19.738-6.83,23.111-16.34h21.232v24.511c0,4.513,3.657,8.17,8.17,8.17
	c4.513,0,8.17-3.657,8.17-8.17V92.596h2.723c4.513,0,8.17-3.657,8.17-8.17s-3.657-8.17-8.17-8.17H264.17
	c-4.513,0-8.17,3.657-8.17,8.17s3.657,8.17,8.17,8.17h8.17v21.787h-2.723c-10.652,0-19.739,6.83-23.111,16.34h-25.91
	c-4.512,0-8.17,3.657-8.17,8.17v24.511h-13.617c-4.512,0-8.17,3.657-8.17,8.17s3.658,8.17,8.17,8.17h89.872v16.34H209.702z
	 M228.766,147.064h24.511c4.513,0,8.17-3.657,8.17-8.17c0-4.506,3.665-8.17,8.17-8.17h10.894c4.513,0,8.17-3.657,8.17-8.17V92.596
	h130.723v81.702h-28.002c-4.513,0-8.17,3.657-8.17,8.17c0,4.506-3.665,8.17-8.17,8.17h-37.36v-19.064c0-4.513-3.657-8.17-8.17-8.17
	H228.766V147.064z"/>
<path d="M305.021,272.34v10.894c0,4.513,3.657,8.17,8.17,8.17c4.513,0,8.17-3.657,8.17-8.17V272.34c0-4.513-3.657-8.17-8.17-8.17
	C308.678,264.17,305.021,267.827,305.021,272.34z"/>
<path d="M198.809,114.383c4.512,0,8.17-3.657,8.17-8.17V95.319c0-4.513-3.658-8.17-8.17-8.17s-8.17,3.657-8.17,8.17v10.894
	C190.638,110.726,194.296,114.383,198.809,114.383z"/>
</svg>