<?xml version="1.0" encoding="iso-8859-1"?>
<!-- Uploaded to: SVG Repo, www.svgrepo.com, Generator: SVG Repo Mixer Tools -->
<!DOCTYPE svg PUBLIC "-//W3C//DTD SVG 1.1//EN" "http://www.w3.org/Graphics/SVG/1.1/DTD/svg11.dtd">
<svg fill="#000000" height="800px" width="800px" version="1.1" id="Capa_1" xmlns="http://www.w3.org/2000/svg" xmlns:xlink="http://www.w3.org/1999/xlink" 
	 viewBox="0 0 267.392 267.392" xml:space="preserve">
<g>
	<path d="M127.052,0.002C94.15,0.271,70.033,23.355,65.28,55.421c-3.437,23.186,1.896,70.686,29.611,78.112
		c-2.621,4.37-4.964,9.347-3.634,14.559c0.977,3.827,3.879,7.34,7.87,8.128c5.527,1.092,9.252-2.156,11.327-6.635
		c0.821,3.697,2.77,6.642,7.457,6.677c4.379,0.033,6.944-2.687,8.195-6.215c1.71,3.955,4.677,6.915,9.178,6.276
		c4.7-0.668,6.932-5.544,7.326-10.594c3.42,5.109,8.99,8.396,13.959,2.506c2.55-3.024,3.066-7.313,1.964-11.03
		c-0.687-2.317-2.357-5.216-4.646-6.569C200.812,100.7,190.762-0.518,127.052,0.002z M149.096,127.872
		c-2.261,1.26-0.988,4.299,1.058,4.51c1.141,1.392,2.645,2.372,3.611,3.965c1.227,2.024,1.712,4.637,1.061,6.937
		c-0.324,1.146-0.969,2.368-1.889,3.161c-2.476,2.131-5.183,0.405-7.158-1.434c-1.706-1.587-2.885-3.476-3.685-5.575
		c-0.158-0.603-0.321-1.183-0.54-1.719c-0.064-0.232-0.151-0.452-0.206-0.688c-0.064-0.27-0.226-0.455-0.431-0.568
		c-0.126-0.217-0.213-0.497-0.351-0.692c-0.811-1.142-2.841-0.843-2.804,0.76c0.061,2.627,0.892,5.121,0.853,7.785
		c-0.036,2.373-0.429,6.475-2.848,7.855c-3.176,1.812-5.783-2.353-6.911-4.653c-1.585-3.233-2.063-6.648-2.275-10.204
		c-0.059-0.976-1.405-1.283-1.806-0.419c-0.91-0.307-1.992,0.063-1.99,1.335c0.003,2.964,0.907,5.941,0.301,8.912
		c-0.577,2.823-3.202,6.317-6.48,4.974c-3.948-1.618-3.877-7.529-4.186-11.888c-0.005-1.442-0.136-2.825-0.425-4.049
		c-0.321-1.36-2.693-1.507-2.901,0c-0.749,5.439-0.187,18.319-9.454,16.23c-8.274-1.865-4.867-13.089-2.69-18.389
		c1.232-0.048,2.125-1.799,0.752-2.392c-22.129-9.572-29.538-44.914-28.828-66.679C70.014,29.96,96.005,0.22,133.418,5.207
		C187.696,12.44,192.726,103.557,149.096,127.872z"/>
	<path d="M101.951,66.486c-0.582-1.89-2.287-2.468-3.785-2.146c-0.575-0.86-1.716-1.335-2.541-0.351
		c-8.186,9.76-25.299,46.886-4.289,53.138c8.208,2.443,13.973-5.832,15.602-12.765C109.741,92.447,105.441,77.812,101.951,66.486z"
		/>
	<path d="M158.854,85.618c-2.686-7.864-10.322-19.809-19.287-20.797c-0.932-0.103-1.749,0.409-2.35,1.099
		c-0.924-0.439-2.122-0.201-2.528,1.135c-3.737,12.329-4.082,27.297,1.608,39.194c3.314,6.93,10.259,11.699,17.291,6.127
		C161.463,106.135,161.86,94.42,158.854,85.618z"/>
	<path d="M123.593,111.528c-1.413-2.652-5.601-1.994-6.346,0.83c-0.633,2.401-2.096,4.362-3.295,6.498
		c-1.57,2.796,2.052,5.515,4.376,3.376c0.658-0.605,1.144-1.338,1.684-2.031c0.927,1.77,2.048,3.371,3.6,4.192
		c2.117,1.119,4.146-0.324,4.403-2.526C128.407,118.492,125.137,114.426,123.593,111.528z"/>
	<path d="M227.603,211.198c-3.573-5.706-11.189-8.11-17.487-5.898c-5.375,1.888-8.86,7.508-7.235,12.927
		c-15.669-7.445-31.668-14.523-47.821-21.304c15.11-6.07,30.329-14.37,43.752-23.7c0.251-0.029,0.501-0.111,0.745-0.244
		c-0.047,0.569-0.107,1.138-0.049,1.718c0.149,1.511,0.662,2.727,1.346,3.763c0.797,2.341,2.311,4.464,4.378,5.846
		c6.591,4.408,15.531,1.459,19.889-4.62c4.128-5.759,5.987-15.083,0.268-20.367c-3.816-3.527-10.378-5.358-15.797-4.066
		c2.41-4.805,3.402-10.19,1.4-15.466c-2.285-6.021-8.253-10.2-14.796-9.16c-6.681,1.062-10.56,7.581-11.07,13.959
		c-0.278,3.479,1.335,8.627,4.394,11.047c-17.706,10.919-35.744,21.583-52.672,33.68c-21.273-8.435-42.843-16.061-64.532-22.615
		c6.079-6.979-1.88-20.089-10.748-20.86c-10.227-0.89-13.342,11.405-9.584,19.224c-9.183,0.797-18.683,15.071-11.992,22.584
		c5.871,6.593,22.783,5.066,24.154-4.455c18.354,6.858,36.808,13.417,55.266,19.96c-19.066,8.014-37.542,18.003-56.376,26.566
		c0.008-4.642-2.481-9.176-6.939-11.089c-5.603-2.404-12.487,0.133-15.611,5.253c-3.123,5.117-2.01,12.27,2.278,16.389
		c2.402,2.305,6.565,3.892,10.39,3.786c-4.967,8.072-2.901,20.171,7.601,22.984c10.773,2.886,23.207-12.748,15.821-21.52
		c23.017-8.57,46.984-19.439,66.937-33.757c17.621,6.299,35.214,12.686,52.679,19.457c-3.35,1.389-5.786,5.144-6.047,8.695
		c-0.39,5.292,3.515,10.232,8.536,11.66c11.439,3.254,19.432-10.257,14.575-19.539C224.113,235.139,234.068,221.525,227.603,211.198
		z M210.473,228.466c-0.208-0.056-0.372,0.008-0.541,0.055c-1.391-0.075-2.709,1.505-1.9,3.017
		c1.918,3.584,3.388,7.404,1.287,11.326c-1.646,3.072-5.25,5.125-8.73,4.455c-3.253-0.626-6.096-3.47-6.101-6.898
		c-0.004-3.731,2.866-5.782,5.82-7.313c1.167-0.604,0.579-2.029-0.448-2.324c0.363-0.968,0.099-2.267-1.138-2.759
		c-44.165-17.561-89.026-35.139-134.807-48.05c-0.403-0.565-1.247-0.59-1.768-0.124c-0.496,0.237-0.72,0.73-0.711,1.287
		c-2.284,5.9-11.864,8.042-16.897,4.223c-4.3-3.262-1.359-8.856,1.477-12.103c3.109-3.558,6.518-3.97,11.054-3.632
		c1.713,0.127,1.888-2.082,0.787-2.908c-0.492-0.369-1.009-0.623-1.525-0.868c-2.624-5.024-3.48-13.541,3.298-15.389
		c6.587-1.796,14.25,10.302,7.686,14.608c-2.294,1.505-0.441,4.897,1.954,3.944c44.926,17.154,89.573,34.065,133.805,53.03
		c1.3,0.557,2.482-0.487,2.57-1.536c0.869-0.376,1.575-1.324,1.384-2.4c-2.036-11.48,15.071-11.389,17.767-1.766
		C227.347,225.435,218.295,230.561,210.473,228.466z"/>
</g>
</svg>